<svg width="175" height="152" viewBox="0 0 175 152" fill="none" xmlns="http://www.w3.org/2000/svg">
<path d="M119.385 150.775H42.0692C38.5395 150.775 35.1234 149.524 32.4247 147.244C29.726 144.964 27.9183 141.801 27.3211 138.314L16.6963 76.2803H144.758L134.133 138.314C133.536 141.801 131.728 144.964 129.029 147.244C126.331 149.524 122.915 150.775 119.385 150.775Z" fill="#C38A01"/>
<path d="M145.035 70.2964H16.4194C13.3708 70.2964 10.8994 72.7734 10.8994 75.8291C10.8994 78.8847 13.3708 81.3617 16.4194 81.3617H145.035C148.083 81.3617 150.555 78.8847 150.555 75.8291C150.555 72.7734 148.083 70.2964 145.035 70.2964Z" fill="white"/>
<path d="M145.036 81.7986H16.4193C14.8399 81.7986 13.3253 81.1697 12.2085 80.0504C11.0917 78.9311 10.4644 77.4129 10.4644 75.83C10.4644 74.247 11.0917 72.7288 12.2085 71.6095C13.3253 70.4902 14.8399 69.8613 16.4193 69.8613H145.036C146.615 69.8613 148.13 70.4902 149.247 71.6095C150.363 72.7288 150.991 74.247 150.991 75.83C150.991 77.4129 150.363 78.9311 149.247 80.0504C148.13 81.1697 146.615 81.7986 145.036 81.7986ZM16.4207 70.7339C15.0722 70.7339 13.779 71.2708 12.8255 72.2265C11.872 73.1822 11.3364 74.4784 11.3364 75.83C11.3364 77.1815 11.872 78.4777 12.8255 79.4334C13.779 80.3891 15.0722 80.926 16.4207 80.926H145.036C146.384 80.926 147.678 80.3891 148.631 79.4334C149.585 78.4777 150.12 77.1815 150.12 75.83C150.12 74.4784 149.585 73.1822 148.631 72.2265C147.678 71.2708 146.384 70.7339 145.036 70.7339H16.4207Z" fill="#C38A01"/>
<path d="M97.7573 72.4338C96.3194 74.2457 96.6192 76.8829 98.427 78.3241C100.235 79.7653 102.866 79.4648 104.304 77.6529L128.919 46.6353C130.357 44.8234 130.057 42.1862 128.249 40.745C126.441 39.3038 123.81 39.6043 122.372 41.4162L97.7573 72.4338Z" fill="white"/>
<path d="M101.021 79.6735C99.9798 79.6741 98.9692 79.3189 98.1561 78.6665C97.1988 77.9016 96.5834 76.7874 96.4448 75.5682C96.3062 74.3491 96.6557 73.1246 97.4167 72.1635L122.031 41.1455C122.409 40.6699 122.876 40.2734 123.407 39.9787C123.937 39.684 124.52 39.497 125.123 39.4282C125.725 39.3594 126.335 39.4102 126.918 39.5778C127.501 39.7453 128.046 40.0263 128.52 40.4047C128.995 40.7831 129.39 41.2514 129.684 41.783C129.978 42.3147 130.165 42.8991 130.234 43.503C130.302 44.1069 130.251 44.7185 130.084 45.3027C129.917 45.887 129.637 46.4325 129.259 46.9082L104.645 77.9258C104.268 78.4027 103.801 78.8001 103.271 79.0948C102.74 79.3896 102.156 79.576 101.554 79.6431C101.377 79.6633 101.199 79.6734 101.021 79.6735ZM98.6979 77.9838C99.083 78.2909 99.5247 78.5189 99.9978 78.6548C100.471 78.7908 100.966 78.832 101.455 78.7762C101.944 78.7203 102.417 78.5685 102.847 78.3294C103.278 78.0902 103.657 77.7684 103.963 77.3824L128.578 46.3644C128.884 45.9784 129.112 45.5358 129.247 45.0616C129.383 44.5875 129.424 44.0913 129.369 43.6012C129.313 43.1111 129.162 42.6368 128.923 42.2054C128.685 41.7739 128.364 41.3938 127.979 41.0867C127.593 40.7796 127.152 40.5515 126.679 40.4155C126.206 40.2795 125.711 40.2382 125.222 40.2939C124.733 40.3497 124.26 40.5014 123.829 40.7405C123.399 40.9796 123.019 41.3013 122.713 41.6872L98.0983 72.7049C97.4807 73.4848 97.197 74.4784 97.3094 75.4677C97.4218 76.4571 97.9212 77.3613 98.6979 77.982V77.9838Z" fill="#C38A01"/>
<path d="M100.75 76.9764C101.62 76.9764 102.326 76.2691 102.326 75.3967C102.326 74.5242 101.62 73.8169 100.75 73.8169C99.8795 73.8169 99.1738 74.5242 99.1738 75.3967C99.1738 76.2691 99.8795 76.9764 100.75 76.9764Z" fill="white"/>
<path d="M100.755 77.4133C100.457 77.4135 100.163 77.3476 99.8942 77.2203C99.625 77.0931 99.3874 76.9076 99.1983 76.6774C99.0092 76.4471 98.8733 76.1777 98.8005 75.8885C98.7277 75.5993 98.7197 75.2975 98.7771 75.0049C98.8513 74.6305 99.03 74.285 99.2924 74.0085C99.5547 73.7319 99.8901 73.5357 100.259 73.4427C100.629 73.3496 101.017 73.3636 101.378 73.4829C101.74 73.6022 102.06 73.8219 102.302 74.1166C102.544 74.4113 102.698 74.7687 102.745 75.1474C102.792 75.5261 102.731 75.9105 102.569 76.2558C102.407 76.6011 102.151 76.8932 101.829 77.0981C101.508 77.303 101.136 77.4123 100.755 77.4133ZM99.6313 75.1745C99.5799 75.4341 99.6198 75.7035 99.7443 75.9369C99.8689 76.1702 100.07 76.3531 100.314 76.4543C100.558 76.5555 100.83 76.5688 101.082 76.4919C101.335 76.415 101.553 76.2526 101.7 76.0325C101.846 75.8124 101.912 75.5482 101.886 75.2848C101.86 75.0215 101.744 74.7753 101.557 74.5883C101.37 74.4012 101.125 74.2849 100.862 74.2591C100.599 74.2333 100.336 74.2996 100.116 74.4468C99.8647 74.6154 99.6904 74.8772 99.6313 75.1745Z" fill="#C38A01"/>
<path d="M39.0821 41.4167C37.6442 39.6048 35.0131 39.3043 33.2053 40.7455C31.3976 42.1867 31.0978 44.8238 32.5357 46.6357L57.1507 77.6533C58.5886 79.4652 61.2197 79.7657 63.0274 78.3245C64.8351 76.8833 65.135 74.2462 63.6971 72.4343L39.0821 41.4167Z" fill="white"/>
<path d="M60.4285 79.6706C59.7331 79.672 59.0464 79.5157 58.4198 79.2135C57.7931 78.9113 57.2428 78.4709 56.81 77.9254L32.1949 46.9077C31.4324 45.9471 31.082 44.7222 31.2206 43.5025C31.3592 42.2829 31.9756 41.1684 32.934 40.4042C33.8925 39.64 35.1145 39.2888 36.3314 39.4277C37.5482 39.5666 38.6602 40.1844 39.4226 41.1451L64.0377 72.163C64.5785 72.8439 64.9168 73.6639 65.0135 74.5289C65.1103 75.3938 64.9617 76.2685 64.5847 77.0525C64.2078 77.8366 63.6179 78.4982 62.8827 78.9613C62.1475 79.4244 61.2969 79.6702 60.4285 79.6706ZM35.8051 40.2721C35.1006 40.2726 34.4105 40.4723 33.814 40.8481C33.2176 41.224 32.739 41.7608 32.4332 42.3969C32.1274 43.0331 32.0067 43.7428 32.0851 44.4445C32.1635 45.1463 32.4378 45.8117 32.8764 46.3643L57.4911 77.3819C58.1104 78.1605 59.0125 78.6611 59.9996 78.7738C60.9866 78.8866 61.978 78.6023 62.7562 77.9833C63.1413 77.6763 63.4624 77.2963 63.701 76.8649C63.9396 76.4336 64.091 75.9593 64.1468 75.4693C64.2025 74.9793 64.1613 74.483 64.0257 74.0089C63.89 73.5348 63.6626 73.0921 63.3562 72.7061L38.7415 41.6885C38.3902 41.2458 37.9436 40.8885 37.4351 40.6432C36.9266 40.398 36.3694 40.2711 35.8051 40.2721Z" fill="#C38A01"/>
<path d="M60.7036 76.9769C61.5741 76.9769 62.2797 76.2696 62.2797 75.3971C62.2797 74.5247 61.5741 73.8174 60.7036 73.8174C59.8331 73.8174 59.1274 74.5247 59.1274 75.3971C59.1274 76.2696 59.8331 76.9769 60.7036 76.9769Z" fill="white"/>
<path d="M60.6996 77.4137C60.3186 77.413 59.9457 77.3039 59.6241 77.0991C59.3026 76.8943 59.0456 76.6021 58.8833 76.2567C58.7209 75.9112 58.6597 75.5266 58.7069 75.1477C58.754 74.7688 58.9076 74.411 59.1496 74.1161C59.3917 73.8213 59.7123 73.6013 60.0742 73.4819C60.4361 73.3625 60.8244 73.3486 61.1939 73.4418C61.5634 73.5349 61.8989 73.7313 62.1614 74.0081C62.4239 74.2849 62.6025 74.6307 62.6766 75.0053C62.7341 75.2979 62.7262 75.5996 62.6534 75.8888C62.5806 76.1779 62.4449 76.4474 62.2558 76.6776C62.0668 76.9079 61.8292 77.0934 61.5601 77.2206C61.291 77.3479 60.9972 77.4138 60.6996 77.4137ZM60.7063 74.2535C60.471 74.2529 60.2413 74.3253 60.0487 74.4606C59.8561 74.596 59.7099 74.7877 59.6302 75.0095C59.5505 75.2314 59.5412 75.4725 59.6035 75.6999C59.6658 75.9272 59.7968 76.1297 59.9784 76.2796C60.16 76.4295 60.3834 76.5195 60.618 76.5372C60.8526 76.5549 61.0869 76.4994 61.2888 76.3785C61.4907 76.2575 61.6504 76.0769 61.746 75.8615C61.8416 75.646 61.8684 75.4062 61.8227 75.1749C61.7713 74.9158 61.6321 74.6824 61.4286 74.5145C61.2251 74.3465 60.9699 74.2543 60.7063 74.2535Z" fill="#C38A01"/>
<path d="M83.9858 100.819C83.9858 99.0148 82.5267 97.5522 80.7268 97.5522C78.9269 97.5522 77.4678 99.0148 77.4678 100.819V131.703C77.4678 133.507 78.9269 134.969 80.7268 134.969C82.5267 134.969 83.9858 133.507 83.9858 131.703V100.819Z" fill="white"/>
<path d="M52.8305 100.501C52.554 98.7183 50.888 97.4978 49.1095 97.775C47.3309 98.0522 46.1134 99.722 46.3899 101.505L51.124 132.022C51.4006 133.804 53.0665 135.025 54.8451 134.748C56.6236 134.471 57.8412 132.801 57.5647 131.018L52.8305 100.501Z" fill="white"/>
<path d="M104.562 131.017C104.286 132.8 105.503 134.47 107.282 134.747C109.06 135.024 110.726 133.804 111.003 132.021L115.737 101.504C116.013 99.7215 114.796 98.0516 113.017 97.7744C111.239 97.4973 109.573 98.7177 109.296 100.5L104.562 131.017Z" fill="white"/>
<path d="M64.6449 56.2486C64.5516 56.2486 64.4607 56.2195 64.3848 56.1652C64.2873 56.0961 64.2212 55.991 64.201 55.8732C64.1809 55.7553 64.2084 55.6343 64.2775 55.5368C64.3609 55.4191 72.5082 43.6407 63.4129 32.9028C61.8031 30.9924 59.795 29.4571 57.5294 28.4046C55.2637 27.3521 52.7952 26.8078 50.297 26.8098H50.1744C51.0381 29.8103 50.8839 32.4781 49.6609 34.5247C49.1398 35.4496 48.3708 36.2105 47.4406 36.7218C46.5103 37.2331 45.4557 37.4745 44.3956 37.4188C43.5181 37.347 42.6806 37.0208 41.9857 36.4801C41.2908 35.9395 40.7687 35.208 40.4832 34.3751C39.4829 31.7659 40.5283 29.236 43.2835 27.6055C45.029 26.6429 46.9685 26.0851 48.9586 25.9731C48.3112 24.2567 47.4693 22.62 46.4495 21.0951C43.1654 16.0795 37.1802 12.6075 30.0279 11.5693C23.9665 10.6898 18.1576 11.7258 15.2269 14.2078C15.1356 14.2851 15.0174 14.3229 14.8983 14.3129C14.7791 14.303 14.6688 14.2461 14.5915 14.1549C14.5143 14.0636 14.4765 13.9454 14.4864 13.8262C14.4964 13.707 14.5532 13.5967 14.6445 13.5195C17.7631 10.8783 23.852 9.76164 30.1573 10.6795C37.5652 11.7551 43.7781 15.3718 47.2041 20.6033C48.3148 22.2624 49.2183 24.0512 49.8945 25.9299C52.5894 25.8651 55.2645 26.4058 57.7228 27.5121C60.1811 28.6184 62.3598 30.2621 64.0986 32.3221C73.6523 43.6006 65.098 55.9371 65.0105 56.0606C64.9689 56.1187 64.914 56.166 64.8504 56.1987C64.7868 56.2314 64.7164 56.2485 64.6449 56.2486ZM49.2512 26.8427C47.3217 26.925 45.4372 27.4517 43.7447 28.3817C41.3663 29.7891 40.4855 31.8565 41.3271 34.0528C41.5551 34.7257 41.9744 35.3176 42.5335 35.756C43.0927 36.1945 43.7675 36.4604 44.4754 36.5213C45.3668 36.5612 46.2517 36.3524 47.0312 35.9182C47.8106 35.484 48.4539 34.8416 48.8892 34.0627C50.0117 32.1828 50.1144 29.6841 49.2498 26.8427H49.2512Z" fill="#C38A01"/>
<path d="M7.44675 21.4759C6.68069 21.7061 5.85505 21.6281 5.14563 21.2586C4.43622 20.8891 3.89907 20.2572 3.64856 19.4976C3.39805 18.7379 3.45397 17.9105 3.80441 17.1915C4.15485 16.4724 4.77214 15.9186 5.52482 15.6479C6.2775 15.3772 7.10612 15.411 7.83425 15.7421C8.56238 16.0733 9.13249 16.6755 9.42319 17.4207C9.71389 18.1659 9.70222 18.9951 9.39065 19.7319C9.07909 20.4686 8.49225 21.0546 7.75509 21.365C7.65441 21.4076 7.55147 21.4446 7.44675 21.4759ZM5.94785 16.4667C5.87483 16.4886 5.80305 16.5145 5.73282 16.5442C5.21414 16.7629 4.80133 17.1755 4.58233 17.694C4.36332 18.2126 4.35542 18.7962 4.56031 19.3205C4.7652 19.8448 5.16669 20.2683 5.67927 20.501C6.19184 20.7336 6.775 20.757 7.30453 20.566C7.83406 20.3751 8.26812 19.985 8.51426 19.4787C8.7604 18.9725 8.79917 18.3902 8.62231 17.8558C8.44545 17.3214 8.06694 16.8771 7.56739 16.6177C7.06785 16.3582 6.48675 16.304 5.94785 16.4667Z" fill="#C38A01"/>
<path d="M7.4415 14.412C6.71684 14.6283 5.93778 14.5692 5.25409 14.2459C4.5704 13.9226 4.03035 13.358 3.73777 12.6606C3.50318 12.1015 3.43966 11.4854 3.55524 10.8902C3.67081 10.2951 3.9603 9.74751 4.38708 9.31685C4.81386 8.88619 5.35877 8.59176 5.95289 8.4708C6.54701 8.34984 7.16366 8.40779 7.72485 8.63731C8.28604 8.86683 8.76656 9.25761 9.10564 9.76024C9.44472 10.2629 9.62714 10.8548 9.62981 11.4611C9.63249 12.0674 9.45531 12.6608 9.12067 13.1664C8.78604 13.672 8.30899 14.0671 7.74985 14.3015C7.64906 14.3437 7.54614 14.3805 7.4415 14.412ZM5.94441 9.40228C5.87052 9.42444 5.79784 9.45048 5.72668 9.48026C5.19783 9.7024 4.77883 10.1254 4.56175 10.6564C4.34468 11.1873 4.3473 11.7827 4.56903 12.3117C4.73075 12.6973 5.00074 13.0278 5.34634 13.2632C5.69194 13.4987 6.09834 13.6289 6.5164 13.6382C6.93446 13.6475 7.34625 13.5354 7.70197 13.3156C8.05769 13.0958 8.3421 12.7776 8.52079 12.3996C8.69948 12.0215 8.7648 11.5998 8.70885 11.1854C8.6529 10.771 8.47807 10.3817 8.20551 10.0645C7.93296 9.74739 7.57435 9.51603 7.17307 9.39842C6.77179 9.28081 6.34503 9.28199 5.94441 9.40182V9.40228Z" fill="#C38A01"/>
<path d="M6.56609 17.6002C8.77991 17.6002 10.5746 16.4015 10.5746 14.9229C10.5746 13.4443 8.77991 12.2456 6.56609 12.2456C4.35227 12.2456 2.55762 13.4443 2.55762 14.9229C2.55762 16.4015 4.35227 17.6002 6.56609 17.6002Z" fill="white"/>
<path d="M8.34057 17.7968C7.76587 17.9667 7.16957 18.0523 6.5703 18.0511C4.06928 18.0511 2.10742 16.6807 2.10742 14.9266C2.10742 13.1726 4.06342 11.7972 6.56353 11.7945C7.65354 11.7736 8.72595 12.0713 9.64923 12.651C10.0639 12.867 10.4114 13.1925 10.6541 13.5922C10.8968 13.9919 11.0253 14.4504 11.0257 14.9179C11.0262 15.3855 10.8985 15.8443 10.6565 16.2443C10.4145 16.6444 10.0676 16.9706 9.65329 17.1874C9.24829 17.4544 8.80589 17.6598 8.34057 17.7968ZM5.0669 12.9107C3.86237 13.2713 3.00856 14.0498 3.00901 14.9244C3.00901 16.1311 4.63954 17.1495 6.5703 17.1477C7.48234 17.1669 8.38023 16.92 9.15426 16.4372C9.44455 16.3035 9.69041 16.0894 9.86265 15.8201C10.0349 15.5509 10.1263 15.2379 10.126 14.9183C10.1257 14.5987 10.0338 14.2859 9.86104 14.017C9.68832 13.748 9.44209 13.5343 9.15155 13.4011C8.37696 12.9194 7.47864 12.674 6.56669 12.6952C6.05895 12.6939 5.55372 12.7664 5.0669 12.9107Z" fill="#C38A01"/>
<path d="M7.5493 17.5183L7.45463 12.3116L6.15995 12.2593L6.06934 17.5791L7.5493 17.5183Z" fill="#C38A01"/>
<path d="M1.2483 16.0557C1.47685 16.0557 1.66213 15.8704 1.66213 15.6419C1.66213 15.4133 1.47685 15.228 1.2483 15.228C1.01975 15.228 0.834473 15.4133 0.834473 15.6419C0.834473 15.8704 1.01975 16.0557 1.2483 16.0557Z" fill="#C38A01"/>
<path d="M1.57154 13.8413C1.8001 13.8413 1.98537 13.6561 1.98537 13.4275C1.98537 13.1989 1.8001 13.0137 1.57154 13.0137C1.34299 13.0137 1.15771 13.1989 1.15771 13.4275C1.15771 13.6561 1.34299 13.8413 1.57154 13.8413Z" fill="#C38A01"/>
<path d="M97.6665 59.8499C97.57 59.8498 97.476 59.8189 97.3985 59.7615C97.3209 59.7041 97.2638 59.6234 97.2355 59.5311C95.7402 53.9475 95.3413 48.1269 96.0607 42.3914C97.226 34.0066 101.85 23.0023 117.262 18.1837C119.43 17.4865 121.654 16.9766 123.91 16.6596C124.636 12.1241 127.399 7.20415 133.577 3.80966C148.256 -4.25597 158.171 2.98065 158.269 3.05458C158.365 3.12631 158.428 3.23311 158.445 3.35146C158.462 3.46982 158.431 3.59005 158.359 3.68569C158.288 3.78134 158.181 3.84457 158.062 3.86148C157.944 3.87839 157.824 3.84759 157.728 3.77585C157.634 3.70553 148.159 -3.17406 134.011 4.60036C128.239 7.77261 125.596 12.3256 124.844 16.5523C131.642 15.8829 134.897 18.1504 136.358 19.8629C137.262 20.8928 137.843 22.1659 138.029 23.5236C138.214 24.8812 137.996 26.2635 137.401 27.4981C136.932 28.4959 136.17 29.3279 135.218 29.8839C134.265 30.44 133.166 30.6941 132.066 30.6126C128.27 30.3899 125.128 27.1965 124.064 22.4767C123.712 20.8789 123.619 19.2353 123.787 17.6081C121.665 17.9129 119.573 18.394 117.531 19.0465C105.52 22.8021 98.5978 30.6996 96.9533 42.5181C96.2488 48.1234 96.6373 53.8122 98.0974 59.2697C98.1181 59.3371 98.1226 59.4084 98.1107 59.4779C98.0988 59.5474 98.0708 59.6131 98.0289 59.6698C97.987 59.7265 97.9324 59.7725 97.8694 59.8043C97.8065 59.836 97.737 59.8526 97.6665 59.8526V59.8499ZM124.706 17.4954C124.518 19.0916 124.598 20.708 124.943 22.2779C125.917 26.5956 128.734 29.5136 132.119 29.7124C133.042 29.7785 133.963 29.5642 134.761 29.0976C135.56 28.631 136.199 27.9339 136.594 27.0978C137.11 26.0212 137.297 24.8167 137.133 23.6345C136.969 22.4522 136.46 21.3444 135.671 20.449C133.563 17.9755 129.717 16.9765 124.706 17.4954Z" fill="#C38A01"/>
<path d="M168.77 7.61054C168.163 7.60927 167.569 7.43633 167.056 7.11169C166.543 6.78705 166.132 6.32394 165.871 5.77581C165.61 5.22767 165.509 4.61686 165.58 4.01387C165.651 3.41088 165.891 2.84029 166.273 2.36795C166.654 1.89561 167.161 1.54079 167.736 1.34442C168.31 1.14805 168.929 1.11815 169.52 1.25816C170.11 1.39817 170.65 1.7024 171.075 2.13572C171.5 2.56904 171.794 3.11379 171.923 3.7071C172.024 4.17743 172.019 4.6644 171.907 5.13235C171.796 5.60031 171.581 6.0374 171.279 6.41163C170.977 6.78586 170.595 7.08775 170.16 7.29519C169.726 7.50264 169.252 7.61038 168.77 7.61054ZM168.777 2.07297C168.298 2.07296 167.83 2.22166 167.439 2.49859C167.047 2.77551 166.751 3.16702 166.592 3.61916C166.432 4.07129 166.417 4.5618 166.548 5.02307C166.678 5.48433 166.949 5.89366 167.322 6.19462C167.696 6.49558 168.153 6.67337 168.632 6.70348C169.11 6.73358 169.586 6.61453 169.994 6.36272C170.402 6.11091 170.722 5.73874 170.91 5.29751C171.097 4.85629 171.144 4.36772 171.042 3.89914C170.932 3.38072 170.647 2.91602 170.234 2.58338C169.822 2.25073 169.307 2.07047 168.777 2.07297Z" fill="#C38A01"/>
<path d="M167.413 14.9679C166.587 14.9679 165.792 14.6511 165.192 14.0827C164.593 13.5144 164.234 12.7377 164.189 11.9127C164.145 11.0876 164.419 10.277 164.954 9.64762C165.489 9.01824 166.245 8.61803 167.067 8.52939C167.888 8.44074 168.712 8.6704 169.37 9.17109C170.027 9.67177 170.467 10.4054 170.6 11.2209C170.733 12.0364 170.548 12.8717 170.083 13.5549C169.618 14.2382 168.909 14.7172 168.102 14.8936C167.876 14.943 167.645 14.9679 167.413 14.9679ZM167.424 9.42992C167.257 9.43 167.091 9.44798 166.928 9.48357C166.352 9.61004 165.847 9.9524 165.516 10.4402C165.185 10.928 165.053 11.5242 165.148 12.106C165.243 12.6879 165.558 13.2112 166.027 13.5682C166.496 13.9252 167.084 14.0889 167.671 14.0255C168.257 13.9621 168.796 13.6764 169.178 13.2273C169.56 12.7782 169.755 12.1998 169.724 11.611C169.692 11.0223 169.436 10.4681 169.009 10.0624C168.581 9.65666 168.014 9.43032 167.424 9.42992Z" fill="#C38A01"/>
<path d="M172.254 8.92733C172.539 7.38757 170.9 5.79448 168.595 5.36908C166.289 4.94368 164.19 5.84706 163.906 7.38682C163.622 8.92658 165.26 10.5197 167.566 10.9451C169.871 11.3705 171.97 10.4671 172.254 8.92733Z" fill="white"/>
<path d="M168.701 11.5019C168.292 11.5013 167.885 11.4636 167.484 11.3892C166.35 11.2011 165.296 10.6863 164.45 9.90793C164.08 9.5922 163.796 9.18827 163.623 8.73348C163.45 8.27868 163.395 7.78771 163.462 7.30594C163.572 6.83189 163.798 6.39298 164.122 6.02977C164.446 5.66655 164.856 5.39072 165.314 5.22777C166.386 4.82277 167.549 4.71864 168.676 4.92665C169.803 5.13466 170.852 5.6469 171.709 6.40795C172.079 6.72368 172.364 7.12761 172.536 7.58241C172.709 8.0372 172.764 8.52817 172.697 9.00995C172.588 9.484 172.361 9.9229 172.037 10.2861C171.714 10.6493 171.304 10.9252 170.846 11.0881C170.166 11.3694 169.436 11.5102 168.701 11.5019ZM167.456 5.71463C166.843 5.70684 166.236 5.82292 165.67 6.05588C165.35 6.16311 165.061 6.34853 164.83 6.59538C164.6 6.84222 164.434 7.14269 164.349 7.46958C164.312 7.80535 164.359 8.14506 164.487 8.45795C164.614 8.77083 164.818 9.04701 165.079 9.26149C165.808 9.89792 166.695 10.3264 167.646 10.5021C168.598 10.6778 169.58 10.5942 170.488 10.26C170.808 10.1528 171.097 9.96735 171.328 9.72051C171.558 9.47366 171.724 9.17319 171.809 8.84631C171.846 8.51051 171.799 8.17072 171.672 7.8578C171.544 7.54487 171.341 7.26871 171.08 7.05439C170.362 6.39973 169.469 5.96847 168.51 5.81335C168.163 5.74869 167.811 5.71565 167.457 5.71463H167.456Z" fill="#C38A01"/>
<path d="M167.56 5.26562L166.653 10.7049L167.991 11.0097L169.112 5.48787L167.56 5.26562Z" fill="#C38A01"/>
<path d="M172.994 11.1171C173.236 11.1171 173.432 10.9209 173.432 10.6789C173.432 10.4369 173.236 10.2407 172.994 10.2407C172.752 10.2407 172.556 10.4369 172.556 10.6789C172.556 10.9209 172.752 11.1171 172.994 11.1171Z" fill="#C38A01"/>
<path d="M173.758 8.87391C173.999 8.87391 174.196 8.67773 174.196 8.43573C174.196 8.19374 173.999 7.99756 173.758 7.99756C173.516 7.99756 173.319 8.19374 173.319 8.43573C173.319 8.67773 173.516 8.87391 173.758 8.87391Z" fill="#C38A01"/>
</svg>
