<svg xmlns="http://www.w3.org/2000/svg" width="55" height="55" viewBox="0 0 55 55" fill="none">
  <rect width="55" height="55" rx="10" fill="#C38A01"/>
  <path d="M32.0837 25.2085H18.3337M22.917 34.3752H18.3337M36.667 16.0418H18.3337M45.8337 24.0627V15.5835C45.8337 11.7331 45.8337 9.80795 45.0843 8.33731C44.4252 7.0437 43.3735 5.99196 42.0798 5.33283C40.6092 4.5835 38.684 4.5835 34.8337 4.5835H20.167C16.3166 4.5835 14.3915 4.5835 12.9208 5.33283C11.6272 5.99196 10.5755 7.0437 9.91632 8.33731C9.16699 9.80795 9.16699 11.7331 9.16699 15.5835V39.4168C9.16699 43.2672 9.16699 45.1924 9.91632 46.663C10.5755 47.9566 11.6272 49.0084 12.9208 49.6675C14.3915 50.4168 16.3166 50.4168 20.167 50.4168H26.3545M50.417 50.4168L46.9795 46.9793M49.2712 41.2502C49.2712 45.6799 45.6801 49.271 41.2503 49.271C36.8205 49.271 33.2295 45.6799 33.2295 41.2502C33.2295 36.8204 36.8205 33.2293 41.2503 33.2293C45.6801 33.2293 49.2712 36.8204 49.2712 41.2502Z" stroke="black" stroke-width="2" stroke-linecap="round" stroke-linejoin="round"/>
</svg>