<svg xmlns="http://www.w3.org/2000/svg" width="55" height="55" viewBox="0 0 55 55" fill="none">
  <rect width="55" height="55" rx="10" fill="#C38A01"/>
  <path d="M34.375 48.125V35.75C34.375 34.4665 34.375 33.8248 34.1252 33.3346C33.9055 32.9034 33.5549 32.5528 33.1237 32.3331C32.6335 32.0833 31.9918 32.0833 30.7083 32.0833H24.2917C23.0082 32.0833 22.3665 32.0833 21.8763 32.3331C21.4451 32.5528 21.0945 32.9034 20.8748 33.3346C20.625 33.8248 20.625 34.4665 20.625 35.75V48.125M6.875 16.0417C6.875 19.8386 9.95304 22.9167 13.75 22.9167C17.547 22.9167 20.625 19.8386 20.625 16.0417C20.625 19.8386 23.703 22.9167 27.5 22.9167C31.297 22.9167 34.375 19.8386 34.375 16.0417C34.375 19.8386 37.453 22.9167 41.25 22.9167C45.047 22.9167 48.125 19.8386 48.125 16.0417M14.2083 48.125H40.7917C43.3586 48.125 44.642 48.125 45.6225 47.6254C46.4849 47.186 47.186 46.4849 47.6254 45.6225C48.125 44.642 48.125 43.3586 48.125 40.7917V14.2083C48.125 11.6414 48.125 10.358 47.6254 9.37754C47.186 8.51513 46.4849 7.81397 45.6225 7.37455C44.642 6.875 43.3586 6.875 40.7917 6.875H14.2083C11.6414 6.875 10.358 6.875 9.37754 7.37455C8.51513 7.81397 7.81397 8.51513 7.37455 9.37754C6.875 10.358 6.875 11.6414 6.875 14.2083V40.7917C6.875 43.3586 6.875 44.642 7.37455 45.6225C7.81397 46.4849 8.51513 47.186 9.37754 47.6254C10.358 48.125 11.6414 48.125 14.2083 48.125Z" stroke="black" stroke-width="2" stroke-linecap="round" stroke-linejoin="round"/>
</svg>