<svg xmlns="http://www.w3.org/2000/svg" width="54" height="55" viewBox="0 0 54 55" fill="none">
<rect width="55" height="55" rx="10" fill="#C38A01"/>
  <path d="M27.0002 34.375C19.8675 34.375 13.5244 37.8827 9.48614 43.3262C8.61699 44.4978 8.18241 45.0835 8.19663 45.8752C8.20761 46.4869 8.58471 47.2585 9.05723 47.6362C9.66882 48.125 10.5164 48.125 12.2114 48.125H41.7889C43.484 48.125 44.3315 48.125 44.9431 47.6362C45.4156 47.2585 45.7927 46.4869 45.8037 45.8752C45.8179 45.0835 45.3833 44.4978 44.5142 43.3262C40.4759 37.8827 34.1328 34.375 27.0002 34.375Z" stroke="black" stroke-width="2" stroke-linecap="round" stroke-linejoin="round"/>
  <path d="M27.0002 27.5C32.592 27.5 37.1252 22.8829 37.1252 17.1875C37.1252 11.4921 32.592 6.875 27.0002 6.875C21.4083 6.875 16.8752 11.4921 16.8752 17.1875C16.8752 22.8829 21.4083 27.5 27.0002 27.5Z" stroke="black" stroke-width="2" stroke-linecap="round" stroke-linejoin="round"/>
</svg>